# xmcd
#
# Track frame offsets: 
#        150
#        19224
#        31409
#        45367
#        58417
#        77388
#        94159
#        111206
#        128024
#        146188
#        157514
#        169821
#        184674
#        201403
#        212120
#        225091
#        238636
#        256620
#        276805
#        289806
#
# Disc length: 4059 seconds
#
# Revision: 0
# Processed by: cddbd v1.5.2PL0 Copyright (c) Steve Scherf et al.
# Submitted via: ExactAudioCopy v0.99pb5
#
DISCID=0d0fd914
DTITLE=Various Artist - 100 Megahits - Country - CD 3
DYEAR=2011
DGENRE=Country
TTITLE0=Kris Kristofferson - Me and Bobby McGee
TTITLE1=Hank Snow - I'm movin' in
TTITLE2=Alan Jackson - Pop a top
TTITLE3=Joy Lynn White - Tonight the heartache's on me
TTITLE4=Kenny Chesney - Don't blink
TTITLE5=Keith Anderson - XXL
TTITLE6=Don Gibson - Come next Monday
TTITLE7=Martina McBride - Wild angels
TTITLE8=Mary Chapin Carpenter - He thinks he'll keep her
TTITLE9=Lefty Frizzell - I love you mostly
TTITLE10=Lorrie Morgan - What part of no
TTITLE11=Gretchen Wilson - You don't have to go home
TTITLE12=Kellie Pickler - Red high heels
TTITLE13=Lester Flatt - Foggy mountain breakdown
TTITLE14=Marty Robbins - Devil woman
TTITLE15=Merle Haggard - That's the way love goes
TTITLE16=Lonestar - Amazed
TTITLE17=Michael Peterson - Modern man
TTITLE18=Lynn Anderson - Rose garden
TTITLE19=Dolly Parton - More where that came from
EXTD=
EXTT0=
EXTT1=
EXTT2=
EXTT3=
EXTT4=
EXTT5=
EXTT6=
EXTT7=
EXTT8=
EXTT9=
EXTT10=
EXTT11=
EXTT12=
EXTT13=
EXTT14=
EXTT15=
EXTT16=
EXTT17=
EXTT18=
EXTT19=
PLAYORDER=
